<svg xmlns="http://www.w3.org/2000/svg" xmlns:xlink="http://www.w3.org/1999/xlink" viewBox="0 0 16 16"><defs><style>.cls-1{fill:none;}.cls-2{clip-path:url(#clip-path);}.cls-3{fill:#fff;}</style><clipPath id="clip-path"><rect class="cls-1" width="16" height="16" rx="1.55"/></clipPath></defs><title>Asset 1</title><g id="Layer_2" data-name="Layer 2"><g id="Layer_1-2" data-name="Layer 1"><g class="cls-2"><g id="Social_Icons_16px_Tumblr" data-name="Social Icons 16px Tumblr"><path id="Icon" class="cls-3" d="M8,16a8,8,0,1,1,8-8A8,8,0,0,1,8,16ZM7.2,3.3A2.76,2.76,0,0,1,5.1,5.9V7.4H6.4v2.8a2.64,2.64,0,0,0,.7,1.9,2.72,2.72,0,0,0,1.7.6h1.6V10.9H9.6c-.6,0-.9-.3-.9-1V7.5h1.7V5.8H8.7V3.4H7.2Z"/></g></g></g></g></svg>