<svg xmlns="http://www.w3.org/2000/svg" xmlns:xlink="http://www.w3.org/1999/xlink" viewBox="0 0 16.1 16"><defs><style>.cls-1{fill:none;}.cls-2{clip-path:url(#clip-path);}.cls-3{fill:#fff;}</style><clipPath id="clip-path"><rect class="cls-1" width="16" height="16"/></clipPath></defs><title>Asset 1</title><g id="Layer_2" data-name="Layer 2"><g id="Layer_1-2" data-name="Layer 1"><g class="cls-2"><g id="Social_Icons_16px_Facebook" data-name="Social Icons 16px Facebook"><path id="Icon" class="cls-3" d="M15.1,0H.9A.9.9,0,0,0,0,.9H0V15.1a.9.9,0,0,0,.9.9H8.6V9.8H6.5V7.4H8.6V5.6a2.91,2.91,0,0,1,2.6-3.2h.5a12.75,12.75,0,0,1,1.9.1V4.7H12.3c-1,0-1.2.5-1.2,1.2V7.4h2.4l-.3,2.4H11.1V16h4.1a.9.9,0,0,0,.9-.9V.9a1.06,1.06,0,0,0-1-.9Z"/></g></g></g></g></svg>