<svg xmlns="http://www.w3.org/2000/svg" viewBox="0 0 12.97 16.47"><defs><style>.cls-1{fill:#fff;}</style></defs><title>Asset 3</title><g id="Layer_2" data-name="Layer 2"><g id="Layer_1-2" data-name="Layer 1"><g id="yelp-icon"><path id="Path_733" data-name="Path 733" class="cls-1" d="M1.17,1.63A5.39,5.39,0,0,1,6.27.13v7.4c0,.2-.2.4-.4.3s-.2,0-.2-.1Zm9.3,2.7A5.76,5.76,0,0,1,13,8.13l-5,.8a.75.75,0,0,1-.5-.7Zm-2.4,6.4c-.3,0-.5.3-.4.5v.1l2.5,4.3a5,5,0,0,0,2.7-3.5Zm-2.5.6c.3,0,.6,0,.7.3l.1,4.8a4.17,4.17,0,0,1-3.9-1.6l3.1-3.5Zm-.69-2.2A.64.64,0,0,1,5,10H5L.38,11.63a6.07,6.07,0,0,1,0-4.2Z"/></g></g></g></svg>